<?xml version="1.0" encoding="UTF-8"?>
<svg xmlns="http://www.w3.org/2000/svg" width="128" height="128" viewBox="0 0 24 24" fill="none" stroke="currentColor" stroke-width="1.5" stroke-linecap="round" stroke-linejoin="round">
  <circle cx="12" cy="12" r="10" fill="#ff6fa6" />
  <path d="M16.2 13.8c-1.2 1.2-2.6 1.8-4.3 1.8-1.7 0-3.3-.6-4.6-1.9C5.5 12.4 4.7 10.2 6 8.9l1.1-1.1c.4-.4 1.1-.4 1.5 0l1.6 1.6c.3.3.4.8.2 1.1l-.6 1.1c-.2.3-.1.7.2.9l2.3 1.6c.4.3.9.2 1.1-.2l1.1-1.6c.4-.6 1.1-.8 1.6-.4l.9.7c.4.3.5.9.2 1.3l-1 1.5c-.2.3-.6.4-.9.2l-1.1-.7c-.4-.3-.9-.2-1.1.2l-1 1.5z" fill="#fff"/>
</svg>